<svg width="1076" height="751" viewBox="0 0 1076 751" fill="none" xmlns="http://www.w3.org/2000/svg">
<g filter="url(#filter0_ddd_3473_24671)">
<mask id="path-1-inside-1_3473_24671" fill="white">
<path fill-rule="evenodd" clip-rule="evenodd" d="M452 46C463.046 46 472 54.9543 472 66V289C472 297.284 465.284 304 457 304H425C416.716 304 410 310.716 410 319V351C410 359.284 403.284 366 395 366H45C33.9543 366 25 357.046 25 346V66C25 54.9543 33.9543 46 45 46H452Z"/>
</mask>
<path d="M472 66H473C473 64.5988 472.863 63.2287 472.6 61.9027L471.619 62.0968L470.638 62.2908C470.875 63.4897 471 64.7298 471 66H472ZM468.631 54.8877L469.462 54.3314C467.929 52.0417 465.958 50.0706 463.669 48.5377L463.112 49.3687L462.556 50.1997C464.628 51.5871 466.413 53.3716 467.8 55.444L468.631 54.8877ZM455.903 46.3807L456.097 45.3997C454.771 45.1374 453.401 45 452 45V46V47C453.27 47 454.51 47.1245 455.709 47.3617L455.903 46.3807ZM452 46V45H446.913V46V47H452V46ZM436.737 46V45H426.562V46V47H436.737V46ZM416.388 46V45H406.212V46V47H416.388V46ZM396.038 46V45H385.862V46V47H396.038V46ZM375.688 46V45H365.512V46V47H375.688V46ZM355.337 46V45H345.162V46V47H355.337V46ZM334.987 46V45H324.812V46V47H334.987V46ZM314.637 46V45H304.462V46V47H314.637V46ZM294.287 46V45H284.112V46V47H294.287V46ZM273.937 46V45H263.762V46V47H273.937V46ZM253.587 46V45H243.412V46V47H253.587V46ZM233.237 46V45H223.062V46V47H233.237V46ZM212.887 46V45H202.712V46V47H212.887V46ZM192.537 46V45H182.362V46V47H192.537V46ZM172.187 46V45H162.012V46V47H172.187V46ZM151.837 46V45H141.662V46V47H151.837V46ZM131.488 46V45H121.313V46V47H131.488V46ZM111.138 46V45H100.963V46V47H111.138V46ZM90.7876 46V45H80.6126V46V47H90.7876V46ZM70.4376 46V45H60.2626V46V47H70.4376V46ZM50.0876 46V45H45V46V47H50.0876V46ZM45 46V45C43.5988 45 42.2287 45.1374 40.9027 45.3997L41.0967 46.3807L41.2908 47.3617C42.4897 47.1245 43.7298 47 45 47V46ZM33.8877 49.3687L33.3314 48.5377C31.0417 50.0706 29.0706 52.0417 27.5377 54.3314L28.3687 54.8877L29.1997 55.444C30.5871 53.3716 32.3716 51.5871 34.444 50.1997L33.8877 49.3687ZM25.3807 62.0968L24.3997 61.9027C24.1374 63.2287 24 64.5988 24 66H25H26C26 64.7298 26.1245 63.4897 26.3617 62.2908L25.3807 62.0968ZM25 66H24V71H25H26V66H25ZM25 81H24V91H25H26V81H25ZM25 101H24V111H25H26V101H25ZM25 121H24V131H25H26V121H25ZM25 141H24V151H25H26V141H25ZM25 161H24V171H25H26V161H25ZM25 181H24V191H25H26V181H25ZM25 201H24V211H25H26V201H25ZM25 221H24V231H25H26V221H25ZM25 241H24V251H25H26V241H25ZM25 261H24V271H25H26V261H25ZM25 281H24V291H25H26V281H25ZM25 301H24V311H25H26V301H25ZM25 321H24V331H25H26V321H25ZM25 341H24V346H25H26V341H25ZM25 346H24C24 347.401 24.1374 348.771 24.3997 350.097L25.3807 349.903L26.3617 349.709C26.1245 348.51 26 347.27 26 346H25ZM28.3687 357.112L27.5377 357.669C29.0706 359.958 31.0417 361.929 33.3314 363.462L33.8877 362.631L34.444 361.8C32.3716 360.413 30.5871 358.628 29.1997 356.556L28.3687 357.112ZM41.0968 365.619L40.9027 366.6C42.2287 366.863 43.5988 367 45 367V366V365C43.7298 365 42.4897 364.875 41.2908 364.638L41.0968 365.619ZM45 366V367H49.8611V366V365H45V366ZM59.5833 366V367H69.3056V366V365H59.5833V366ZM79.0278 366V367H88.75V366V365H79.0278V366ZM98.4722 366V367H108.194V366V365H98.4722V366ZM117.917 366V367H127.639V366V365H117.917V366ZM137.361 366V367H147.083V366V365H137.361V366ZM156.806 366V367H166.528V366V365H156.806V366ZM176.25 366V367H185.972V366V365H176.25V366ZM195.694 366V367H205.417V366V365H195.694V366ZM215.139 366V367H224.861V366V365H215.139V366ZM234.583 366V367H244.306V366V365H234.583V366ZM254.028 366V367H263.75V366V365H254.028V366ZM273.472 366V367H283.195V366V365H273.472V366ZM292.917 366V367H302.639V366V365H292.917V366ZM312.361 366V367H322.083V366V365H312.361V366ZM331.806 366V367H341.528V366V365H331.806V366ZM351.25 366V367H360.972V366V365H351.25V366ZM370.695 366V367H380.417V366V365H370.695V366ZM390.139 366V367H395V366V365H390.139V366ZM395 366V367C397.168 367 399.237 366.568 401.125 365.786L400.742 364.862L400.359 363.938C398.709 364.622 396.9 365 395 365V366ZM408.862 356.742L409.786 357.125C410.568 355.237 411 353.168 411 351H410H409C409 352.9 408.622 354.709 407.938 356.359L408.862 356.742ZM410 351H411V347H410H409V351H410ZM410 339H411V331H410H409V339H410ZM410 323H411V319H410H409V323H410ZM410 319H411C411 317.1 411.378 315.291 412.062 313.641L411.138 313.258L410.214 312.875C409.432 314.763 409 316.832 409 319H410ZM419.258 305.138L419.641 306.062C421.291 305.378 423.1 305 425 305V304V303C422.832 303 420.763 303.432 418.875 304.214L419.258 305.138ZM425 304V305H429V304V303H425V304ZM437 304V305H445V304V303H437V304ZM453 304V305H457V304V303H453V304ZM457 304V305C459.168 305 461.237 304.568 463.125 303.786L462.742 302.862L462.359 301.938C460.709 302.622 458.9 303 457 303V304ZM470.862 294.742L471.786 295.125C472.568 293.237 473 291.168 473 289H472H471C471 290.9 470.622 292.709 469.938 294.359L470.862 294.742ZM472 289H473V283.932H472H471V289H472ZM472 273.795H473V263.659H472H471V273.795H472ZM472 253.523H473V243.386H472H471V253.523H472ZM472 233.25H473V223.114H472H471V233.25H472ZM472 212.977H473V202.841H472H471V212.977H472ZM472 192.705H473V182.568H472H471V192.705H472ZM472 172.432H473V162.295H472H471V172.432H472ZM472 152.159H473V142.023H472H471V152.159H472ZM472 131.886H473V121.75H472H471V131.886H472ZM472 111.614H473V101.477H472H471V111.614H472ZM472 91.3408H473V81.2045H472H471V91.3408H472ZM472 71.0681H473V66H472H471V71.0681H472ZM472 66H474C474 64.5333 473.856 63.0982 473.581 61.7086L471.619 62.0968L469.657 62.4849C469.882 63.6202 470 64.7953 470 66H472ZM468.631 54.8877L470.293 53.775C468.688 51.3768 466.623 49.3124 464.225 47.7068L463.112 49.3687L462 51.0306C463.963 52.3454 465.655 54.0365 466.969 56.0003L468.631 54.8877ZM455.903 46.3807L456.291 44.4187C454.902 44.1438 453.467 44 452 44V46V48C453.205 48 454.38 48.1181 455.515 48.3427L455.903 46.3807ZM452 46V44H446.913V46V48H452V46ZM436.737 46V44H426.562V46V48H436.737V46ZM416.388 46V44H406.212V46V48H416.388V46ZM396.038 46V44H385.862V46V48H396.038V46ZM375.688 46V44H365.512V46V48H375.688V46ZM355.337 46V44H345.162V46V48H355.337V46ZM334.987 46V44H324.812V46V48H334.987V46ZM314.637 46V44H304.462V46V48H314.637V46ZM294.287 46V44H284.112V46V48H294.287V46ZM273.937 46V44H263.762V46V48H273.937V46ZM253.587 46V44H243.412V46V48H253.587V46ZM233.237 46V44H223.062V46V48H233.237V46ZM212.887 46V44H202.712V46V48H212.887V46ZM192.537 46V44H182.362V46V48H192.537V46ZM172.187 46V44H162.012V46V48H172.187V46ZM151.837 46V44H141.662V46V48H151.837V46ZM131.488 46V44H121.313V46V48H131.488V46ZM111.138 46V44H100.963V46V48H111.138V46ZM90.7876 46V44H80.6126V46V48H90.7876V46ZM70.4376 46V44H60.2626V46V48H70.4376V46ZM50.0876 46V44H45V46V48H50.0876V46ZM45 46V44C43.5333 44 42.0982 44.1438 40.7086 44.4187L41.0967 46.3807L41.4849 48.3427C42.6202 48.1181 43.7953 48 45 48V46ZM33.8877 49.3687L32.775 47.7068C30.3768 49.3124 28.3123 51.3768 26.7068 53.775L28.3687 54.8877L30.0306 56.0003C31.3453 54.0365 33.0365 52.3454 35.0003 51.0306L33.8877 49.3687ZM25.3807 62.0968L23.4187 61.7086C23.1438 63.0982 23 64.5333 23 66H25H27C27 64.7953 27.1181 63.6202 27.3427 62.4849L25.3807 62.0968ZM25 66H23V71H25H27V66H25ZM25 81H23V91H25H27V81H25ZM25 101H23V111H25H27V101H25ZM25 121H23V131H25H27V121H25ZM25 141H23V151H25H27V141H25ZM25 161H23V171H25H27V161H25ZM25 181H23V191H25H27V181H25ZM25 201H23V211H25H27V201H25ZM25 221H23V231H25H27V221H25ZM25 241H23V251H25H27V241H25ZM25 261H23V271H25H27V261H25ZM25 281H23V291H25H27V281H25ZM25 301H23V311H25H27V301H25ZM25 321H23V331H25H27V321H25ZM25 341H23V346H25H27V341H25ZM25 346H23C23 347.467 23.1438 348.902 23.4187 350.291L25.3807 349.903L27.3427 349.515C27.1181 348.38 27 347.205 27 346H25ZM28.3687 357.112L26.7068 358.225C28.3124 360.623 30.3768 362.688 32.775 364.293L33.8877 362.631L35.0003 360.969C33.0365 359.655 31.3454 357.963 30.0306 356L28.3687 357.112ZM41.0968 365.619L40.7086 367.581C42.0982 367.856 43.5333 368 45 368V366V364C43.7953 364 42.6202 363.882 41.4849 363.657L41.0968 365.619ZM45 366V368H49.8611V366V364H45V366ZM59.5833 366V368H69.3056V366V364H59.5833V366ZM79.0278 366V368H88.75V366V364H79.0278V366ZM98.4722 366V368H108.194V366V364H98.4722V366ZM117.917 366V368H127.639V366V364H117.917V366ZM137.361 366V368H147.083V366V364H137.361V366ZM156.806 366V368H166.528V366V364H156.806V366ZM176.25 366V368H185.972V366V364H176.25V366ZM195.694 366V368H205.417V366V364H195.694V366ZM215.139 366V368H224.861V366V364H215.139V366ZM234.583 366V368H244.306V366V364H234.583V366ZM254.028 366V368H263.75V366V364H254.028V366ZM273.472 366V368H283.195V366V364H273.472V366ZM292.917 366V368H302.639V366V364H292.917V366ZM312.361 366V368H322.083V366V364H312.361V366ZM331.806 366V368H341.528V366V364H331.806V366ZM351.25 366V368H360.972V366V364H351.25V366ZM370.695 366V368H380.417V366V364H370.695V366ZM390.139 366V368H395V366V364H390.139V366ZM395 366V368C397.301 368 399.501 367.542 401.508 366.709L400.742 364.862L399.976 363.014C398.446 363.649 396.766 364 395 364V366ZM408.862 356.742L410.709 357.508C411.542 355.501 412 353.301 412 351H410H408C408 352.766 407.649 354.446 407.014 355.976L408.862 356.742ZM410 351H412V347H410H408V351H410ZM410 339H412V331H410H408V339H410ZM410 323H412V319H410H408V323H410ZM410 319H412C412 317.234 412.351 315.554 412.986 314.024L411.138 313.258L409.291 312.492C408.458 314.499 408 316.699 408 319H410ZM419.258 305.138L420.024 306.986C421.554 306.351 423.234 306 425 306V304V302C422.699 302 420.499 302.458 418.492 303.291L419.258 305.138ZM425 304V306H429V304V302H425V304ZM437 304V306H445V304V302H437V304ZM453 304V306H457V304V302H453V304ZM457 304V306C459.301 306 461.501 305.542 463.508 304.709L462.742 302.862L461.976 301.014C460.446 301.649 458.766 302 457 302V304ZM470.862 294.742L472.709 295.508C473.542 293.501 474 291.301 474 289H472H470C470 290.766 469.649 292.446 469.014 293.976L470.862 294.742ZM472 289H474V283.932H472H470V289H472ZM472 273.795H474V263.659H472H470V273.795H472ZM472 253.523H474V243.386H472H470V253.523H472ZM472 233.25H474V223.114H472H470V233.25H472ZM472 212.977H474V202.841H472H470V212.977H472ZM472 192.705H474V182.568H472H470V192.705H472ZM472 172.432H474V162.295H472H470V172.432H472ZM472 152.159H474V142.023H472H470V152.159H472ZM472 131.886H474V121.75H472H470V131.886H472ZM472 111.614H474V101.477H472H470V111.614H472ZM472 91.3408H474V81.2045H472H470V91.3408H472ZM472 71.0681H474V66H472H470V71.0681H472Z" fill="#7B7B7B" mask="url(#path-1-inside-1_3473_24671)"/>
</g>
<defs>
<filter id="filter0_ddd_3473_24671" x="-6" y="0" width="1082" height="911" filterUnits="userSpaceOnUse" color-interpolation-filters="sRGB">
<feFlood flood-opacity="0" result="BackgroundImageFix"/>
<feColorMatrix in="SourceAlpha" type="matrix" values="0 0 0 0 0 0 0 0 0 0 0 0 0 0 0 0 0 0 127 0" result="hardAlpha"/>
<feOffset dx="99" dy="84"/>
<feGaussianBlur stdDeviation="65"/>
<feColorMatrix type="matrix" values="0 0 0 0 0.588235 0 0 0 0 0.588235 0 0 0 0 0.588235 0 0 0 0.09 0"/>
<feBlend mode="normal" in2="BackgroundImageFix" result="effect1_dropShadow_3473_24671"/>
<feColorMatrix in="SourceAlpha" type="matrix" values="0 0 0 0 0 0 0 0 0 0 0 0 0 0 0 0 0 0 127 0" result="hardAlpha"/>
<feOffset dx="223" dy="189"/>
<feGaussianBlur stdDeviation="87.5"/>
<feColorMatrix type="matrix" values="0 0 0 0 0.588235 0 0 0 0 0.588235 0 0 0 0 0.588235 0 0 0 0.05 0"/>
<feBlend mode="normal" in2="effect1_dropShadow_3473_24671" result="effect2_dropShadow_3473_24671"/>
<feColorMatrix in="SourceAlpha" type="matrix" values="0 0 0 0 0 0 0 0 0 0 0 0 0 0 0 0 0 0 127 0" result="hardAlpha"/>
<feOffset dx="396" dy="337"/>
<feGaussianBlur stdDeviation="104"/>
<feColorMatrix type="matrix" values="0 0 0 0 0.588235 0 0 0 0 0.588235 0 0 0 0 0.588235 0 0 0 0.01 0"/>
<feBlend mode="normal" in2="effect2_dropShadow_3473_24671" result="effect3_dropShadow_3473_24671"/>
<feBlend mode="normal" in="SourceGraphic" in2="effect3_dropShadow_3473_24671" result="shape"/>
</filter>
</defs>
</svg>
